<?xml version="1.0" encoding="utf-8"?>
<!-- Generator: Adobe Illustrator 24.1.0, SVG Export Plug-In . SVG Version: 6.00 Build 0)  -->
<svg version="1.1" id="Capa_1" xmlns="http://www.w3.org/2000/svg" xmlns:xlink="http://www.w3.org/1999/xlink" x="0px" y="0px"
	 viewBox="0 0 296.87 300" style="enable-background:new 0 0 296.87 300;" xml:space="preserve">
<style type="text/css">
	.st0{fill:#95A0A0;}
	.st1{fill:none;stroke:#FFFFFF;stroke-miterlimit:10;}
	.st2{fill:#FFFFFF;}
	.st3{fill:#D1AC9F;}
</style>
<path class="st3" d="M287.35,170.51l-3.62-2.81c0.48-3.62-0.05-7.4-1.72-10.92l-6.04-12.73c-0.45-0.96-0.59-2.03-0.39-3.07
	l3.36-17.51c0.99-5.18-0.46-10.4-3.99-14.33c-3.52-3.92-8.56-5.93-13.82-5.5l-17.68,1.45c-1.07,0.09-2.11-0.16-3.02-0.72l-11.98-7.4
	c-2.32-1.43-4.83-2.32-7.38-2.7l-2.29-4.12c-3.92-7.04-11.19-11.63-18.98-11.98c-11.2-0.51-21.23,7.41-23.34,18.4
	c-0.84,4.35-1.42,8.81-1.75,13.23c-0.11,1.33,0.38,2.62,1.34,3.56c0.83,0.8,1.97,1.25,3.12,1.25c0.16,0,0.32-0.01,0.48-0.03
	c2.4-0.27,4.13-2.41,3.89-4.81c0.3-3.87,0.83-7.75,1.56-11.54c1.31-6.84,7.33-11.58,14.31-11.27c4.76,0.21,9.24,3.08,11.68,7.47
	l0.44,0.79c-3.67,1.32-6.97,3.74-9.37,7.15c-9.15,13.02-14.35,28.34-15.12,44.08c-1.54-5.59-2.63-11.31-3.25-17.14
	c0.01-0.24,0.01-0.49-0.02-0.74c-0.26-2.42-2.44-4.17-4.85-3.9c-1.15,0.12-2.24,0.72-2.97,1.62c-0.74,0.9-1.09,2.1-0.98,3.25
	c1.32,13.34,4.93,26.21,10.71,38.27l3.55,7.4c0.27,0.96,0.62,1.89,1.03,2.77c-11.5,9.43-21.19,20.83-28.63,33.62v-6.81
	c0-2.24-0.1-4.47-0.27-6.7c0.01-0.63-0.04-1.25-0.16-1.87c-1.13-11.48-4.5-22.71-9.94-32.9l-18.81-35.28
	c1.51-1.59,2.79-3.42,3.79-5.45l6.25-8.46c18.34-24.82,28.44-55.5,28.45-86.36c0-13.02-8.86-24.15-21.55-27.06
	c-10.23-2.35-20.76,1.19-27.5,9.23l-4.56,5.45c-3.32-0.22-6.73,0.25-10.02,1.5l-12.26,4.67c-4.49,1.71-9.31,1.93-13.94,0.64
	l-17.14-4.77c-6.12-1.7-12.53-0.48-17.59,3.37c-5.06,3.84-7.96,9.69-7.96,16.04v17.93c0,4.78-1.49,9.35-4.32,13.21L26.32,78.6
	c-2.94,4.01-4.43,8.66-4.57,13.31l-5.84,2.98c-9.35,4.76-15.16,14.24-15.16,24.73c0,13.02,8.86,24.15,21.55,27.06
	c10.61,2.44,21.48,3.64,32.35,3.64c19.94,0,39.88-4.06,58.2-12.04l9.63-4.19c0.93-0.27,1.83-0.59,2.71-0.97l18.31,34.34
	c3.01,5.66,5.33,11.67,6.89,17.87c-3.04-1.61-6.16-2.76-9.31-3.41c-5.52-1.15-11.51-0.89-17.81,0.76c-4.1,1.08-7.01,3.95-7.78,7.67
	c-0.78,3.73,0.74,7.52,4.06,10.14c5.11,4.04,10.5,6.67,16.02,7.82c2.26,0.47,4.6,0.71,7.01,0.71c3.3,0,6.72-0.45,10.25-1.33v40.33
	c-4.26-3.62-8.8-6.36-13.57-8.17c-6.76-2.57-14.41-3.44-22.75-2.61c-5.02,0.5-8.97,3.3-10.56,7.49c-1.59,4.19-0.5,8.91,2.92,12.62
	c2.7,2.93,5.61,5.51,8.64,7.67c1.98,1.41,4.73,0.96,6.14-1.02c1.41-1.98,0.95-4.72-1.02-6.14c-2.54-1.82-4.99-4-7.28-6.48
	c-1.11-1.21-1.55-2.52-1.17-3.53c0.38-1,1.58-1.7,3.21-1.86c6.97-0.7,13.28,0,18.75,2.07c5.47,2.08,10.65,5.74,15.4,10.89
	c0.81,0.88,1.26,1.82,1.29,2.65v0.16c-0.01,0.25-0.04,0.49-0.13,0.71c-0.38,1-1.58,1.7-3.21,1.86c-3.99,0.4-7.83,0.34-11.41-0.19
	c-2.4-0.36-4.64,1.3-5,3.71c-0.35,2.4,1.31,4.64,3.71,5c2.46,0.36,5.02,0.55,7.64,0.55c1.94,0,3.92-0.1,5.93-0.3
	c0.85-0.09,1.68-0.24,2.47-0.46v22.93c0,2.43,1.97,4.4,4.4,4.4c2.43,0,4.4-1.97,4.4-4.4v-33.4c0.01-0.3,0.01-0.61,0-0.91v-12.12
	c0.38,0.07,0.76,0.13,1.15,0.17c1.69,0.17,3.34,0.25,4.95,0.25c5.01,0,9.68-0.81,13.93-2.42c5.61-2.13,10.85-5.8,15.56-10.91
	c3-3.25,3.95-7.4,2.54-11.11c-1.41-3.71-4.88-6.18-9.28-6.62c-6.91-0.69-13.27,0.04-18.88,2.17c-2.27,0.86-4.47,1.98-6.6,3.33
	c7.27-15.13,17.77-28.53,30.79-39.21c0.83,0.63,1.71,1.18,2.65,1.66l6.8,4.66c19.01,13,41.92,20.06,64.93,20.06
	c1.35,0,2.71-0.02,4.06-0.07c10.64-0.38,19.47-7.96,21.47-18.41C297.33,184.28,294.12,175.78,287.35,170.51L287.35,170.51z
	 M33.42,83.8l7.78-10.61c3.94-5.37,6.02-11.74,6.02-18.41V36.85c0-3.58,1.63-6.87,4.48-9.03c2.85-2.16,6.46-2.86,9.91-1.9
	l17.14,4.77c6.45,1.8,13.17,1.49,19.43-0.9l12.26-4.67c7.39-2.81,15.72,0.63,18.96,7.84c0.74,1.64,1.46,3.39,2.15,5.2
	c0.87,2.27,3.41,3.41,5.68,2.54c2.27-0.87,3.41-3.41,2.55-5.68c-0.75-1.97-1.54-3.88-2.35-5.67c-2.29-5.08-6.16-8.98-10.79-11.36
	l2-2.4c4.6-5.49,11.8-7.91,18.78-6.31c8.67,1.99,14.72,9.59,14.72,18.48c0,23.52-6.25,46.93-17.8,67.37
	c2.91-13.48,3.17-27.55,0.73-41.12c-0.43-2.39-2.72-3.98-5.11-3.55c-2.39,0.43-3.98,2.72-3.55,5.11
	c2.65,14.72,1.83,30.08-2.37,44.43l-1.46,4.99l-15.07-32.3c-1.03-2.2-3.65-3.16-5.85-2.13c-2.2,1.03-3.16,3.64-2.13,5.85
	l19.26,41.28c-1.59,3.96-4.9,6.88-8.93,7.98c-0.06,0.01-0.11,0.03-0.17,0.05c-0.48,0.12-0.96,0.21-1.46,0.28L86.52,94.03
	c-1.71-1.72-4.5-1.74-6.22-0.03c-1.72,1.71-1.74,4.5-0.02,6.22l25.88,26.11l-6.8,0.11c-0.51,0.01-1.01,0.01-1.52,0.01
	c-22.56,0-44.48-7.88-61.89-22.29C29.86,99.12,28.75,90.18,33.42,83.8L33.42,83.8z M24.27,138.11c-8.67-1.99-14.72-9.59-14.72-18.48
	c0-7.17,3.97-13.64,10.35-16.89l3.36-1.71c1.41,3.75,3.78,7.2,7.07,9.92c18.48,15.3,41.64,23.85,65.56,24.29
	C72.82,142.46,47.87,143.52,24.27,138.11L24.27,138.11z M151.15,199.05c-4.97,1.31-9.6,1.53-13.78,0.66
	c-4.17-0.87-8.33-2.92-12.36-6.11c-0.71-0.56-0.97-1.13-0.91-1.44c0.07-0.31,0.53-0.73,1.41-0.96c2.99-0.78,5.85-1.18,8.57-1.18
	c1.8,0,3.54,0.17,5.21,0.52c4.17,0.87,8.33,2.92,12.36,6.11c0.48,0.38,0.75,0.76,0.86,1.06c0.01,0.14,0.02,0.28,0.03,0.42
	C152.44,198.44,151.99,198.82,151.15,199.05L151.15,199.05z M174.73,228.92c3.24-1.23,6.86-1.85,10.8-1.85
	c1.32,0,2.68,0.07,4.07,0.21c0.99,0.1,1.73,0.48,1.93,0.99c0.2,0.51-0.11,1.28-0.78,2.02c-3.78,4.1-7.89,7.01-12.21,8.65
	c-4.33,1.64-9.33,2.19-14.88,1.64c-0.99-0.1-1.73-0.48-1.93-0.99c-0.2-0.51,0.11-1.29,0.78-2.02
	C166.29,233.47,170.4,230.56,174.73,228.92L174.73,228.92z M209.36,107.42c2.09-2.97,5.42-4.57,8.82-4.57c1.94,0,3.89,0.52,5.64,1.6
	l11.98,7.4c0,0,0,0,0,0c2.52,1.56,5.41,2.26,8.37,2.01l17.68-1.45c2.49-0.2,4.88,0.74,6.55,2.61c1.67,1.86,2.36,4.34,1.89,6.8
	l-3.36,17.51c-0.56,2.9-0.18,5.84,1.09,8.5l6.04,12.73c2.44,5.14,0.44,11.31-4.54,14.05c-15.66,8.6-33.92,11.33-51.42,7.69
	l-3.02-0.63l21.91-15c2.01-1.37,2.52-4.11,1.14-6.12c-1.37-2-4.11-2.52-6.12-1.14l-28.71,19.65c-0.17-0.07-0.34-0.14-0.51-0.22
	c-0.04-0.02-0.07-0.03-0.11-0.05c-1.23-0.6-2.3-1.45-3.16-2.48c-0.01-0.02-0.03-0.04-0.05-0.06c-0.04-0.05-0.08-0.09-0.12-0.14
	c-0.72-0.91-1.27-1.96-1.62-3.1c-0.03-0.23-0.07-0.46-0.13-0.68l20.61-28.51c1.42-1.97,0.98-4.72-0.99-6.14
	c-1.97-1.42-4.72-0.98-6.14,0.99l-14.88,20.58l-0.15-1.54C194.38,139.9,199.1,122.05,209.36,107.42L209.36,107.42z M287.07,191.05
	c-1.23,6.4-6.64,11.04-13.15,11.28c-16.89,0.61-33.84-2.93-49.1-10.1c2.85,0.29,5.71,0.44,8.57,0.44c14.02,0,27.93-3.52,40.37-10.35
	c2.75-1.51,5-3.6,6.68-6.04l1.51,1.18C286.1,180.68,288.06,185.89,287.07,191.05L287.07,191.05z M287.07,191.05"/>
</svg>
