<?xml version="1.0" encoding="utf-8"?>
<!-- Generator: Adobe Illustrator 24.1.0, SVG Export Plug-In . SVG Version: 6.00 Build 0)  -->
<svg version="1.1" id="Capa_1" xmlns="http://www.w3.org/2000/svg" xmlns:xlink="http://www.w3.org/1999/xlink" x="0px" y="0px"
	 viewBox="0 0 315.74 300" style="enable-background:new 0 0 315.74 300;" xml:space="preserve">
<style type="text/css">
	.st0{fill:#95A0A0;}
	.st1{fill:none;stroke:#FFFFFF;stroke-miterlimit:10;}
	.st2{fill:#FFFFFF;}
	.st3{fill:#D1AC9F;}
</style>
<g>
	<path class="st3" d="M177.77,226.61l-3.89-0.79c-7.96-1.61-14.15-7.8-15.76-15.76l-0.79-3.89c-0.91-4.48-4.74-7.61-9.31-7.61
		c-4.57,0-8.4,3.13-9.31,7.61l-0.79,3.89c-1.61,7.96-7.8,14.15-15.76,15.76l-3.89,0.79c-4.48,0.91-7.61,4.74-7.61,9.31
		s3.13,8.4,7.61,9.31l3.89,0.79c7.96,1.61,14.15,7.8,15.76,15.76l0.79,3.89c0.91,4.48,4.74,7.61,9.31,7.61
		c4.57,0,8.4-3.13,9.31-7.61l0.79-3.89c1.61-7.96,7.8-14.15,15.76-15.76l3.89-0.79c4.48-0.91,7.61-4.74,7.61-9.31
		S182.25,227.51,177.77,226.61z M175.9,236.02l-3.89,0.79l0,0c-11.67,2.37-20.73,11.43-23.1,23.1l-0.79,3.89
		c-0.01,0.03-0.01,0.06-0.02,0.08c-0.05,0.01-0.12,0.01-0.17,0c-0.01-0.02-0.01-0.04-0.02-0.08l-0.79-3.89
		c-2.37-11.67-11.43-20.73-23.1-23.1l-3.89-0.79c-0.03-0.01-0.06-0.01-0.08-0.02c-0.01-0.05-0.01-0.12,0-0.17
		c0.02-0.01,0.04-0.01,0.08-0.02l3.89-0.79c11.67-2.37,20.73-11.43,23.1-23.1l0.79-3.89c0.01-0.03,0.01-0.06,0.02-0.08
		c0.05-0.01,0.12-0.01,0.17,0c0.01,0.02,0.01,0.04,0.02,0.08l0.79,3.89c2.37,11.67,11.43,20.73,23.1,23.1l3.89,0.79
		c0.03,0.01,0.06,0.01,0.08,0.02c0.01,0.05,0.01,0.12,0,0.17C175.96,236,175.94,236.01,175.9,236.02z"/>
	<path class="st3" d="M241.31,243.69c-2.59,0-4.69,2.1-4.69,4.69v12.71c0,2.59,2.1,4.69,4.69,4.69c2.59,0,4.69-2.1,4.69-4.69v-12.71
		C246,245.79,243.9,243.69,241.31,243.69z"/>
	<path class="st3" d="M241.31,277.9c-2.59,0-4.69,2.1-4.69,4.69v12.71c0,2.59,2.1,4.69,4.69,4.69c2.59,0,4.69-2.1,4.69-4.69V282.6
		C246,280.01,243.9,277.9,241.31,277.9z"/>
	<path class="st3" d="M264.77,267.15h-12.71c-2.59,0-4.69,2.1-4.69,4.69c0,2.59,2.1,4.69,4.69,4.69h12.71c2.59,0,4.69-2.1,4.69-4.69
		C269.46,269.25,267.36,267.15,264.77,267.15z"/>
	<path class="st3" d="M230.55,267.15h-12.71c-2.59,0-4.69,2.1-4.69,4.69c0,2.59,2.1,4.69,4.69,4.69h12.71c2.59,0,4.69-2.1,4.69-4.69
		C235.25,269.25,233.15,267.15,230.55,267.15z"/>
	<path class="st3" d="M28.16,184.55c-2.59,0-4.69,2.1-4.69,4.69v12.71c0,2.59,2.1,4.69,4.69,4.69s4.69-2.1,4.69-4.69v-12.71
		C32.85,186.65,30.75,184.55,28.16,184.55z"/>
	<path class="st3" d="M28.16,218.76c-2.59,0-4.69,2.1-4.69,4.69v12.71c0,2.59,2.1,4.69,4.69,4.69s4.69-2.1,4.69-4.69v-12.71
		C32.85,220.86,30.75,218.76,28.16,218.76z"/>
	<path class="st3" d="M51.62,208.01H38.91c-2.59,0-4.69,2.1-4.69,4.69c0,2.59,2.1,4.69,4.69,4.69h12.71c2.59,0,4.69-2.1,4.69-4.69
		C56.31,210.11,54.21,208.01,51.62,208.01z"/>
	<path class="st3" d="M17.4,208.01H4.69c-2.59,0-4.69,2.1-4.69,4.69c0,2.59,2.1,4.69,4.69,4.69H17.4c2.59,0,4.69-2.1,4.69-4.69
		C22.1,210.11,19.99,208.01,17.4,208.01z"/>
	<path class="st3" d="M241.92,23.15c2.59,0,4.69-2.1,4.69-4.69V5.75c0-2.59-2.1-4.69-4.69-4.69c-2.59,0-4.69,2.1-4.69,4.69v12.71
		C237.22,21.05,239.32,23.15,241.92,23.15z"/>
	<path class="st3" d="M241.92,57.36c2.59,0,4.69-2.1,4.69-4.69V39.96c0-2.59-2.1-4.69-4.69-4.69c-2.59,0-4.69,2.1-4.69,4.69v12.71
		C237.22,55.26,239.32,57.36,241.92,57.36z"/>
	<path class="st3" d="M252.67,33.9h12.71c2.59,0,4.69-2.1,4.69-4.69s-2.1-4.69-4.69-4.69h-12.71c-2.59,0-4.69,2.1-4.69,4.69
		S250.08,33.9,252.67,33.9z"/>
	<path class="st3" d="M218.45,33.9h12.71c2.59,0,4.69-2.1,4.69-4.69s-2.1-4.69-4.69-4.69h-12.71c-2.59,0-4.69,2.1-4.69,4.69
		S215.86,33.9,218.45,33.9z"/>
	<path class="st3" d="M178.94,65.44l-18.61-3.77c-16.52-3.35-29.36-16.19-32.71-32.71l-3.77-18.61C122.59,4.16,117.51,0,111.19,0
		c0,0,0,0,0,0c-6.32,0-11.4,4.16-12.66,10.35l-3.77,18.61c-3.35,16.52-16.19,29.36-32.71,32.71l-18.61,3.77
		c-6.19,1.25-10.35,6.34-10.35,12.66c0,6.32,4.16,11.4,10.35,12.66l18.61,3.77c16.52,3.35,29.36,16.19,32.71,32.71l3.77,18.61
		c1.25,6.19,6.34,10.35,12.66,10.35c6.32,0,11.4-4.16,12.66-10.35l3.77-18.61c3.35-16.52,16.19-29.36,32.71-32.71l18.61-3.77
		c6.19-1.25,10.35-6.34,10.35-12.66C189.29,71.78,185.13,66.7,178.94,65.44z M177.07,81.56l-18.61,3.77
		c-20.23,4.1-35.95,19.82-40.05,40.05l-3.77,18.61c-0.53,2.62-2.78,2.83-3.46,2.83c-0.68,0-2.93-0.2-3.46-2.83l-3.77-18.61
		c-4.1-20.23-19.82-35.95-40.05-40.05l-18.61-3.77c-2.62-0.53-2.83-2.78-2.83-3.46c0-0.68,0.2-2.93,2.83-3.46l18.61-3.77
		c20.23-4.1,35.95-19.82,40.05-40.05l3.77-18.61c0.53-2.62,2.78-2.83,3.46-2.83c0.68,0,2.93,0.2,3.46,2.83l3.77,18.61
		c4.1,20.23,19.82,35.95,40.05,40.05l18.61,3.77c2.62,0.53,2.83,2.78,2.83,3.46C179.9,78.78,179.7,81.02,177.07,81.56z"/>
	<path class="st3" d="M306.92,134.79l-14.29-2.9c-12.26-2.49-21.79-12.01-24.27-24.27l-2.9-14.29c-1.05-5.19-5.49-8.82-10.79-8.82
		l0,0c-5.3,0-9.74,3.63-10.79,8.82l-2.9,14.29c-2.49,12.26-12.01,21.79-24.27,24.27l-14.29,2.9c-5.19,1.05-8.82,5.49-8.82,10.79
		s3.63,9.73,8.82,10.79l14.29,2.9c12.26,2.49,21.79,12.01,24.27,24.27l2.9,14.29c1.05,5.19,5.49,8.82,10.79,8.82
		c5.3,0,9.73-3.63,10.79-8.82l2.9-14.29c2.49-12.26,12.01-21.79,24.27-24.27l0,0l14.29-2.9c5.19-1.05,8.82-5.49,8.82-10.79
		S312.12,135.85,306.92,134.79z M305.06,147.17l-14.29,2.9c-15.96,3.24-28.37,15.64-31.61,31.61l-2.9,14.29
		c-0.17,0.86-0.71,1.3-1.59,1.3s-1.41-0.44-1.59-1.3l-2.9-14.29c-3.24-15.96-15.64-28.37-31.61-31.61l-14.29-2.9
		c-0.86-0.17-1.3-0.71-1.3-1.59c0-0.88,0.44-1.41,1.3-1.59l14.29-2.9c15.96-3.24,28.37-15.64,31.61-31.61l2.9-14.29
		c0.17-0.86,0.71-1.3,1.59-1.3s1.41,0.44,1.59,1.3l2.9,14.29c3.24,15.96,15.64,28.37,31.61,31.61l14.29,2.9
		c0.86,0.17,1.3,0.71,1.3,1.59C306.35,146.46,305.92,147,305.06,147.17z"/>
</g>
</svg>
