<?xml version="1.0" encoding="utf-8"?>
<!-- Generator: Adobe Illustrator 24.1.0, SVG Export Plug-In . SVG Version: 6.00 Build 0)  -->
<svg version="1.1" id="Capa_1" xmlns="http://www.w3.org/2000/svg" xmlns:xlink="http://www.w3.org/1999/xlink" x="0px" y="0px"
	 viewBox="0 0 425.2 425.2" style="enable-background:new 0 0 425.2 425.2;" xml:space="preserve">
<style type="text/css">
	.st0{fill:#C6AA9D;}
</style>
<g>
	<path class="st0" d="M217.5,397.1c-16.8,3.8-35,0-48.5-13.2c-13.5-13.1-21.5-36.2-17.6-57.4c7.5-40.6,49.3-53.2,66.8-88.4
		c13.1-26.3,10.4-60,7.7-91s-4.6-65.1,9.6-90.4c14.7-26,43.6-34.4,67.6-25.2s43.2,33.2,56.1,60.6c26.4,55.7,29.3,128.3,7.7,187.3
		C345.3,338.3,299.2,378.7,217.5,397.1z"/>
	<path class="st0" d="M170.8,224c-15.1,33.8-50.9,49.1-79.3,34.8c-28.3-14.3-46.2-55.7-41.6-94.2c4.7-38.5,30.9-70.6,61-76.3
		c24.2-4.6,50.8,8.3,63.9,34.8C188.6,151.2,186.5,189,170.8,224z"/>
</g>
<path d="M366.9,259v-46c0-14.1-11.4-25.5-25.5-25.5h-20.4v-51.1c0-2.8-2.3-5.1-5.1-5.1h-30.6c-2.8,0-5.1,2.3-5.1,5.1v51.1h-46v-61.3
	c0-2.8-2.3-5.1-5.1-5.1h-30.6c-2.8,0-5.1,2.3-5.1,5.1v61.3h-46v-51.1c0-2.8-2.3-5.1-5.1-5.1h-30.6c-2.8,0-5.1,2.3-5.1,5.1v51.1H85.9
	c-14.1,0-25.5,11.4-25.5,25.5v46c-0.2,11,5.7,21.1,15.3,26.4v55.3H65.5c-2.8,0-5.1,2.3-5.1,5.1s2.3,5.1,5.1,5.1h296.3
	c2.8,0,5.1-2.3,5.1-5.1s-2.3-5.1-5.1-5.1h-10.2v-55.2C361,280,366.8,269.9,366.9,259z M290.3,141.5h20.4v46h-20.4V141.5z
	 M203.4,131.3h20.4v56.2h-20.4V131.3z M116.6,141.5H137v46h-20.4V141.5z M70.6,213c0-8.5,6.9-15.3,15.3-15.3h255.4
	c8.5,0,15.3,6.9,15.3,15.3v46c0,8.1-4.8,15.5-12.2,18.7c-7.7,3.3-16.6,1.6-22.7-4.3c-3.8-3.8-6-9.1-6-14.5v-20.4
	c0-7.7-4.4-14.8-11.3-18.2l-0.3-0.2c-0.8-0.4-1.7-0.7-2.5-1c-0.5-0.2-1-0.3-1.5-0.5c-0.7-0.1-1.3-0.3-2-0.3
	c-0.4-0.1-0.9-0.2-1.3-0.2c-0.2,0-0.5,0-0.7,0c-0.2,0-0.5-0.1-0.8-0.1c-0.6,0-1.1,0.1-1.7,0.2c-0.6,0-1.2,0.1-1.7,0.2
	c-0.9,0.2-1.8,0.4-2.6,0.7c-0.5,0.1-0.9,0.2-1.4,0.4c-1,0.4-1.9,0.8-2.8,1.4c-0.3,0.2-0.7,0.3-1,0.5c-1.2,0.8-2.3,1.7-3.3,2.7
	c-3.8,3.8-6,9-6,14.5v10.2c0,11.3-9.1,20.4-20.4,20.4c-11.3,0-20.4-9.1-20.4-20.4v-10.2c0-7.7-4.4-14.8-11.3-18.2l-0.3-0.2
	c-0.8-0.4-1.7-0.7-2.5-1c-0.5-0.2-1-0.3-1.5-0.5c-0.7-0.1-1.3-0.3-2-0.3c-0.4-0.1-0.9-0.2-1.3-0.2c-0.2,0-0.5,0-0.7,0
	c-0.2,0-0.5-0.1-0.8-0.1c-0.6,0-1.1,0.1-1.7,0.2c-0.6,0-1.2,0.1-1.7,0.2c-0.9,0.2-1.8,0.4-2.6,0.7c-0.5,0.1-0.9,0.2-1.4,0.4
	c-0.9,0.4-1.9,0.8-2.7,1.4c-0.3,0.2-0.7,0.3-1,0.5c-1.2,0.8-2.3,1.7-3.3,2.7c-3.9,3.8-6,9-6,14.5v30.6c0,11.3-9.1,20.4-20.4,20.4
	c-11.3,0-20.4-9.1-20.4-20.4v-30.6c0-7.7-4.4-14.8-11.3-18.2l-0.3-0.2c-0.8-0.4-1.7-0.7-2.5-1c-0.5-0.2-1-0.3-1.5-0.5
	c-0.7-0.1-1.3-0.3-2-0.3c-0.4-0.1-0.9-0.2-1.3-0.2c-0.5,0-1,0-1.5,0c-11.3,0-20.4,9.1-20.4,20.4V259c0,5.4-2.1,10.6-5.9,14.4
	c-5.1,4.9-12.2,6.9-19.1,5.4c-1.2-0.3-2.4-0.6-3.6-1.1c-2.3-1-4.5-2.5-6.3-4.3c-3.8-3.8-6-9.1-6-14.5V213z M85.9,340.7v-51.5
	c0.5,0.1,1,0.1,1.5,0.2l0.4,0c4.5,0.5,9-0.1,13.2-1.5c1.3-0.5,2.6-1,3.8-1.6c0.3-0.1,0.5-0.3,0.8-0.4c1-0.5,2-1.1,2.9-1.8
	c0.3-0.2,0.6-0.4,0.9-0.6c7.8-5.7,12.4-14.8,12.3-24.5v-20.4c0-2.7,1.1-5.3,3-7.2c0.5-0.5,1.1-1,1.7-1.3c0.1-0.1,0.2-0.1,0.3-0.2
	c0.5-0.3,1-0.6,1.6-0.8c0.2-0.1,0.3-0.1,0.5-0.1c0.5-0.2,1-0.3,1.5-0.4c0.2,0,0.5,0,0.8-0.1c0.4,0,0.9-0.1,1.3,0c0.3,0,0.6,0,1,0.1
	c0.4,0,0.8,0.1,1.1,0.2c0.1,0,0.2,0.1,0.4,0.1c4.5,1.6,7.4,5.9,7.3,10.6v29.8c0,16.9,13.7,30.6,30.6,30.6
	c16.9,0,30.6-13.7,30.6-30.6v-30.6c0-3.5,1.8-6.7,4.7-8.6c0.1-0.1,0.2-0.1,0.3-0.1c0.5-0.3,1.1-0.6,1.6-0.8c0.1-0.1,0.3-0.1,0.4-0.1
	c0.5-0.2,1-0.3,1.5-0.4c0.2,0,0.5,0,0.7-0.1c0.4,0,0.9-0.1,1.3,0c0.3,0,0.6,0,1,0.1c0.4,0,0.8,0.1,1.1,0.2c0.1,0,0.2,0.1,0.4,0.1
	c4.5,1.6,7.4,5.9,7.4,10.6v9.4c0,16.9,13.7,30.6,30.6,30.6c16.9,0,30.6-13.7,30.6-30.6v-10.2c0-2.7,1.1-5.3,3-7.2
	c0.5-0.5,1.1-1,1.7-1.3c0.1-0.1,0.2-0.1,0.3-0.2c0.5-0.3,1-0.6,1.6-0.8c0.2-0.1,0.3-0.1,0.5-0.1c0.5-0.2,1-0.3,1.5-0.4
	c0.2,0,0.5,0,0.8-0.1c0.4,0,0.9-0.1,1.3,0c0.3,0,0.6,0,1,0.1c0.4,0,0.8,0.1,1.1,0.2c0.1,0,0.2,0.1,0.4,0.1c4.4,1.6,7.4,5.9,7.3,10.6
	V259c0,8.1,3.2,16,9,21.7c1,1,2.1,1.9,3.2,2.7c0.3,0.2,0.7,0.5,1,0.7c0.9,0.6,1.7,1.1,2.6,1.6c0.4,0.2,0.7,0.4,1.1,0.6
	c1,0.5,2.1,1,3.2,1.4c0.2,0.1,0.4,0.2,0.6,0.2c2.8,1,5.7,1.5,8.7,1.6h0c1.4,0.1,2.9,0,4.3-0.1l0.5-0.1c0.5-0.1,1-0.1,1.5-0.2v51.5
	H85.9z"/>
<path d="M213.6,110.8c14.1,0,25.5-11.4,25.5-25.5c0-12.3-17.8-38.6-21.3-43.8c-1-1.3-2.6-2.1-4.2-2.1c-1.6,0-3.2,0.8-4.2,2.1
	c-3.6,5.2-21.3,31.5-21.3,43.8C188.1,99.4,199.5,110.8,213.6,110.8z M213.6,53.7C221,65.1,229,79.7,229,85.3
	c0,8.5-6.9,15.3-15.3,15.3c-8.5,0-15.3-6.9-15.3-15.3C198.3,79.7,206.3,65.1,213.6,53.7z"/>
<path d="M300.5,121c14.1,0,25.5-11.4,25.5-25.5c0-12.3-17.8-38.6-21.3-43.8c-1-1.3-2.6-2.1-4.2-2.1c-1.6,0-3.2,0.8-4.2,2.1
	c-3.6,5.2-21.3,31.5-21.3,43.8C274.9,109.6,286.4,121,300.5,121z M300.5,63.9c7.4,11.5,15.3,26.1,15.3,31.6
	c0,8.5-6.9,15.3-15.3,15.3c-8.5,0-15.3-6.9-15.3-15.3C285.1,89.9,293.1,75.4,300.5,63.9z"/>
<path d="M126.8,121c14.1,0,25.5-11.4,25.5-25.5c0-12.3-17.8-38.6-21.3-43.8c-1-1.3-2.6-2.1-4.2-2.1c-1.6,0-3.2,0.8-4.2,2.1
	c-3.6,5.2-21.3,31.5-21.3,43.8C101.3,109.6,112.7,121,126.8,121z M126.8,63.9c7.4,11.5,15.3,26.1,15.3,31.6
	c0,8.5-6.9,15.3-15.3,15.3c-8.5,0-15.3-6.9-15.3-15.3C111.5,89.9,119.5,75.4,126.8,63.9z"/>
</svg>
