<?xml version="1.0" encoding="utf-8"?>
<!-- Generator: Adobe Illustrator 24.1.0, SVG Export Plug-In . SVG Version: 6.00 Build 0)  -->
<svg version="1.1" id="Capa_1" xmlns="http://www.w3.org/2000/svg" xmlns:xlink="http://www.w3.org/1999/xlink" x="0px" y="0px"
	 viewBox="0 0 299.99 300" style="enable-background:new 0 0 299.99 300;" xml:space="preserve">
<style type="text/css">
	.st0{fill:#95A0A0;}
	.st1{fill:none;stroke:#FFFFFF;stroke-miterlimit:10;}
	.st2{fill:#FFFFFF;}
	.st3{fill:#D1AC9F;}
</style>
<g>
	<g>
		<path class="st3" d="M295.8,42.54L257.45,4.19c-5.59-5.59-14.68-5.59-20.26,0L164.97,76.4c-1.81,1.81-1.81,4.74,0,6.55
			c1.81,1.81,4.74,1.81,6.55,0l72.21-72.21c0.96-0.96,2.23-1.48,3.58-1.48s2.63,0.53,3.58,1.48l38.35,38.35
			c0.96,0.96,1.48,2.23,1.48,3.58c0,1.35-0.53,2.63-1.48,3.58l-9.41,9.41l-24.66-24.66c-1.81-1.81-4.74-1.81-6.55,0
			c-1.81,1.81-1.81,4.74,0,6.55l24.66,24.66l-10.75,10.75L251.7,72.13c-1.81-1.81-4.74-1.81-6.55,0c-1.81,1.81-1.81,4.74,0,6.55
			l10.84,10.84l-10.75,10.75L234.4,89.44c-1.81-1.81-4.74-1.81-6.55,0c-1.81,1.81-1.81,4.74,0,6.55l10.84,10.84l-10.75,10.75
			l-24.66-24.66c-1.81-1.81-4.74-1.81-6.55,0c-1.81,1.81-1.81,4.74,0,6.55l24.66,24.66l-10.75,10.75l-10.84-10.84
			c-1.81-1.81-4.74-1.81-6.55,0c-1.81,1.81-1.81,4.74,0,6.55l10.84,10.84l-9.1,9.1L149.47,105l8.47-8.47c1.81-1.81,1.81-4.74,0-6.55
			c-1.81-1.81-4.74-1.81-6.55,0l-8.47,8.47L57.51,13.05c-5.94-5.94-13.84-9.21-22.24-9.21c-8.4,0-16.3,3.27-22.24,9.21
			c-5.94,5.94-9.21,13.84-9.21,22.24c0,8.4,3.27,16.3,9.21,22.24l85.41,85.41L4.19,237.19c-5.59,5.59-5.59,14.68,0,20.26
			l38.35,38.35c2.71,2.71,6.3,4.2,10.13,4.2s7.43-1.49,10.13-4.2l94.25-94.25l6.71,6.71c1.81,1.81,4.74,1.81,6.55,0
			c1.81-1.81,1.81-4.74,0-6.55l-9.27-9.27c-0.18-0.28-0.39-0.56-0.64-0.8s-0.52-0.46-0.8-0.64L59.29,90.68L71.7,78.26l7.68,7.68
			c0.9,0.9,2.09,1.36,3.27,1.36s2.37-0.45,3.27-1.36c1.81-1.81,1.81-4.74,0-6.55l-7.68-7.68L90.67,59.3l48.97,48.97
			c0,0,0,0,0.01,0.01c0,0,0,0,0.01,0.01l51.61,51.61c0.13,0.17,0.26,0.33,0.42,0.49c0.15,0.15,0.32,0.29,0.49,0.42l68.71,68.71
			l-12.42,12.42l-69.33-69.33c-0.04-0.05-0.08-0.09-0.12-0.14l-27.65-27.65c-0.05-0.05-0.1-0.09-0.14-0.13l-48.83-48.83
			c-1.81-1.81-4.74-1.81-6.55,0c-1.81,1.81-1.81,4.74,0,6.55l146.07,146.07l-12.42,12.42l-44-44c-1.81-1.81-4.74-1.81-6.55,0
			c-1.81,1.81-1.81,4.74,0,6.55l47.28,47.28c0.45,0.45,1.01,0.81,1.6,1.04l55.94,21.72c0.88,0.34,1.8,0.51,2.72,0.51
			c1.96,0,3.88-0.77,5.32-2.2c2.1-2.11,2.77-5.26,1.69-8.03l-21.74-55.92c-0.23-0.59-0.59-1.15-1.04-1.6l-69.16-69.16l94.27-94.27
			C301.39,57.22,301.39,48.13,295.8,42.54z M150.51,195l-9.09,9.08l-10.84-10.84c-1.81-1.81-4.74-1.81-6.55,0
			c-1.81,1.81-1.81,4.74,0,6.55l10.84,10.84l-10.75,10.75l-24.66-24.66c-1.81-1.81-4.74-1.81-6.55,0c-1.81,1.81-1.81,4.74,0,6.55
			l24.66,24.66l-10.75,10.75l-10.84-10.84c-1.81-1.81-4.74-1.81-6.55,0c-1.81,1.81-1.81,4.74,0,6.55l10.84,10.84l-10.75,10.75
			l-10.84-10.84c-1.81-1.81-4.74-1.81-6.55,0c-1.81,1.81-1.81,4.74,0,6.55l10.84,10.84l-10.75,10.75l-24.66-24.66
			c-1.81-1.81-4.74-1.81-6.55,0c-1.81,1.81-1.81,4.74,0,6.55l24.66,24.66l-9.41,9.41c-0.96,0.96-2.23,1.48-3.58,1.48
			c-1.35,0-2.63-0.53-3.58-1.48L10.74,250.9c-1.98-1.98-1.98-5.19,0-7.17l94.25-94.25L150.51,195z M19.58,50.98
			c-8.65-8.65-8.65-22.73,0-31.38c8.65-8.65,22.73-8.65,31.38,0L65.6,34.23L34.21,65.61L19.58,50.98z M68.43,68.44
			C68.43,68.44,68.43,68.44,68.43,68.44C68.43,68.44,68.43,68.44,68.43,68.44L52.74,84.13L40.76,72.16l31.38-31.38l11.98,11.98
			L68.43,68.44z M283.42,283.41l-45.62-17.71l27.89-27.89L283.42,283.41z"/>
	</g>
</g>
</svg>
