<?xml version="1.0" encoding="utf-8"?>
<!-- Generator: Adobe Illustrator 24.1.0, SVG Export Plug-In . SVG Version: 6.00 Build 0)  -->
<svg version="1.1" id="Capa_1" xmlns="http://www.w3.org/2000/svg" xmlns:xlink="http://www.w3.org/1999/xlink" x="0px" y="0px"
	 viewBox="0 0 306.12 300" style="enable-background:new 0 0 306.12 300;" xml:space="preserve">
<style type="text/css">
	.st0{fill:#95A0A0;}
	.st1{fill:none;stroke:#FFFFFF;stroke-miterlimit:10;}
	.st2{fill:#FFFFFF;}
	.st3{fill:#D1AC9F;}
</style>
<path class="st3" d="M306.02,31.57c-0.61-8.12-4.11-15.77-9.87-21.53c-12.01-12.01-30.63-13.41-44.29-3.33l-5.54,4.09
	c-54.31,40.08-103.13,87.23-145.09,140.12c-10.53,13.28-20.74,27.08-30.39,41.06c-0.69-0.03-1.39-0.05-2.09-0.05
	c-12.15,0-23.57,4.73-32.16,13.32c-15.25,15.25-15.88,30.43-16.48,45.1c-0.56,13.51-1.08,26.27-12.68,40.5L0,300h11.78
	c27.72,0,71.73-13.01,89.14-30.42c8.59-8.59,13.32-20.01,13.32-32.16c0-0.7-0.02-1.4-0.05-2.1c14.01-9.66,27.81-19.86,41.05-30.38
	c52.87-41.94,100.02-90.75,140.13-145.09l4.09-5.54C304.3,47.77,306.63,39.69,306.02,31.57z M93.01,261.67
	c-12.19,12.19-43.87,23.8-70.22,26.53c7.54-13.44,8.05-26.02,8.52-37.38c0.56-13.68,1.05-25.49,13.21-37.65
	c6.48-6.48,15.09-10.04,24.25-10.04s17.77,3.57,24.25,10.04s10.04,15.09,10.04,24.25C103.05,246.58,99.48,255.19,93.01,261.67z
	 M100.92,205.26c-5.13-5.13-11.28-8.87-17.98-11.06c8.06-11.51,16.5-22.88,25.17-33.9c9.55,1.28,18.43,5.65,25.28,12.49
	c6.85,6.85,11.21,15.74,12.5,25.28c-11,8.66-22.37,17.09-33.9,25.16C109.79,216.53,106.05,210.39,100.92,205.26z M290.46,47.67
	l-4.09,5.54c-37.62,50.97-81.55,97-130.63,136.96c-2.45-9.51-7.4-18.26-14.43-25.3c-7.03-7.03-15.78-11.98-25.29-14.43
	c39.98-49.1,86.01-93.02,136.96-130.63l5.54-4.1c9.16-6.76,21.66-5.82,29.72,2.24c3.86,3.86,6.22,8.99,6.62,14.44
	C295.27,37.86,293.71,43.28,290.46,47.67z"/>
</svg>
