<?xml version="1.0" encoding="utf-8"?>
<!-- Generator: Adobe Illustrator 24.1.0, SVG Export Plug-In . SVG Version: 6.00 Build 0)  -->
<svg version="1.1" id="Capa_1" xmlns="http://www.w3.org/2000/svg" xmlns:xlink="http://www.w3.org/1999/xlink" x="0px" y="0px"
	 viewBox="0 0 425.2 425.2" style="enable-background:new 0 0 425.2 425.2;" xml:space="preserve">
<style type="text/css">
	.st0{fill:#C6AA9D;}
	.st1{clip-path:url(#SVGID_2_);}
</style>
<path class="st0" d="M251.4,286.6c-37-4.5-67.1,31.6-103.6,39.7c-34.8,7.8-72.5-13.2-89.2-46.1s-13.6-74.6,4.3-106.7
	c17.9-32.1,49.1-54.9,83.1-65.9c34-11.1,70.6-11.1,105.7-5.1c32,5.5,64,16.6,88.8,38.6c18.3,16.2,31.9,38.1,38.7,62.1
	c5,17.6,6.2,37.2-1.2,53.9c-9.2,20.8-30.7,33.5-52.4,36.6C303.9,296.8,282,290.3,251.4,286.6z"/>
<path d="M264.4,363.7l-3.2-2.7c-3.1-2.6-76.5-63.6-89.8-90.4l-0.2-0.4c-3.3-6.6-7.3-14.8-7.3-29c0-15,5.7-29.1,16-39.6
	c10.4-10.6,24.4-16.5,39.3-16.5c18.1,0,34.7,8.6,45.2,22.9c10.5-14.3,27.1-22.9,45.2-22.9c15,0,28.9,5.8,39.4,16.5
	c10.4,10.5,16.1,24.6,16.1,39.6c0,13.4-4.2,22.2-7.2,28.6l-0.4,0.7c-12.7,26.7-86.7,87.9-89.8,90.5L264.4,363.7z M219.2,195.2
	c-25.4,0-45.2,20.2-45.2,46c0,11.9,3.3,18.6,6.3,24.6l0.2,0.4c10.8,22,69.5,72.3,84,84.5c14.5-12.2,73.6-62.6,83.9-84.4l0.4-0.8
	c2.9-6.2,6.3-13.2,6.3-24.3c0-8.2-2-15.8-5.5-22.3c-1.7-3.2-3.8-6.1-6.1-8.7c-8.2-9.2-20.2-14.9-33.7-14.9
	c-17.1,0-32.8,9.4-40.8,24.6l-4.5,8.5l-4.5-8.5C252,204.6,236.4,195.2,219.2,195.2z"/>
<g>
	<defs>
		<polygon id="SVGID_1_" points="230.2,320.5 246.1,334.8 203.5,374 69.3,260.2 26.9,167.1 42,111.9 81,75.7 127.2,66.8 159,66.8 
			188.6,78.6 203.5,93.5 221.5,81.8 246.1,74.6 273.9,69.1 298.4,71.8 344.1,92.4 369.2,136.9 375.4,182.2 355,224.5 349.4,216.8 
			339.8,201.6 		"/>
	</defs>
	<clipPath id="SVGID_2_">
		<use xlink:href="#SVGID_1_"  style="overflow:visible;"/>
	</clipPath>
	<path class="st1" d="M203.5,363.7l-3.2-2.7c-5.1-4.2-124.8-103.7-146.2-147l-0.6-1.1C48.4,202.5,42,189.5,42,167.2
		c0-23.7,9-46,25.4-62.6c16.5-16.8,38.5-26,62.1-26c30.1,0,57.7,15.1,74,39.9c16.3-24.8,43.9-39.9,74-39.9c23.6,0,45.7,9.2,62.1,26
		c16.4,16.7,25.4,38.9,25.4,62.6c0,21.2-6.7,35.3-11.6,45.5l-0.6,1.2c-7.2,15.3-27.1,37.7-49.9,60.4c-5.8,5.8-11.8,11.6-17.8,17.3
		c-37.2,35.2-75.6,67-78.5,69.4L203.5,363.7z M129.5,88.7C86,88.7,52,123.2,52,167.2c0,19.9,5.6,31.2,10.6,41.2l0.6,1.1
		C81.7,247.2,184,334.2,203.5,350.6c9.6-8,39.3-33.1,69.1-61c7.7-7.2,15.5-14.7,22.9-22c22.3-22.1,41.5-43.7,48.3-58l0.6-1.2
		c4.7-9.9,10.6-22.2,10.6-41.2c0-44-34-78.5-77.4-78.5c-29.3,0-55.9,16.1-69.6,42.1l-4.5,8.5l-4.5-8.5
		C185.4,104.8,158.8,88.7,129.5,88.7z"/>
</g>
</svg>
