<?xml version="1.0" encoding="utf-8"?>
<!-- Generator: Adobe Illustrator 24.1.0, SVG Export Plug-In . SVG Version: 6.00 Build 0)  -->
<svg version="1.1" id="Capa_1" xmlns="http://www.w3.org/2000/svg" xmlns:xlink="http://www.w3.org/1999/xlink" x="0px" y="0px"
	 viewBox="0 0 180.63 300" style="enable-background:new 0 0 180.63 300;" xml:space="preserve">
<style type="text/css">
	.st0{fill:#95A0A0;}
	.st1{fill:none;stroke:#FFFFFF;stroke-miterlimit:10;}
	.st2{fill:#FFFFFF;}
	.st3{fill:#D1AC9F;}
</style>
<path class="st3" d="M174.47,5.44c-3.62-4.39-9.43-6.35-14.98-5.04c-5.54,1.31-9.87,5.65-11.15,11.2L121,130H20
	c-11.04,0-20,8.95-20,20v145c0,2.76,2.24,5,5,5h15c2.62,0.01,4.81-2.01,5-4.63L33.16,185h89.03l33,111.42
	c0.63,2.13,2.59,3.59,4.81,3.58h15c1.52,0,2.95-0.69,3.9-1.87c0.95-1.18,1.31-2.73,0.98-4.22l-29.78-134l27.5-142.11
	C178.46,13.42,177.31,8.89,174.47,5.44L174.47,5.44z M15.36,290H10V165h14.62L15.36,290z M33.91,175l0.74-10h81.62l2.96,10H33.91z
	 M163.74,290l-33-111.4L126.7,165H141l27.78,125H163.74z M167.8,15.91L140.88,155H10v-5c0-5.52,4.48-10,10-10h105
	c2.33,0,4.35-1.61,4.88-3.87l28.22-122.28c0.64-2.61,3.23-4.23,5.85-3.68C166.56,10.73,168.27,13.27,167.8,15.91L167.8,15.91z
	 M167.8,15.91"/>
</svg>
