<?xml version="1.0" encoding="utf-8"?>
<!-- Generator: Adobe Illustrator 24.1.0, SVG Export Plug-In . SVG Version: 6.00 Build 0)  -->
<svg version="1.1" id="Capa_1" xmlns="http://www.w3.org/2000/svg" xmlns:xlink="http://www.w3.org/1999/xlink" x="0px" y="0px"
	 viewBox="0 0 425.2 425.2" style="enable-background:new 0 0 425.2 425.2;" xml:space="preserve">
<style type="text/css">
	.st0{fill:#C6AA9D;}
	.st1{clip-path:url(#SVGID_2_);}
</style>
<g>
	<path class="st0" d="M217.5,397.1c-16.8,3.8-35,0-48.5-13.2c-13.5-13.1-21.5-36.2-17.6-57.4c7.5-40.6,49.3-53.2,66.8-88.4
		c13.1-26.3,10.4-60,7.7-91s-4.6-65.1,9.6-90.4c14.7-26,43.6-34.4,67.6-25.2c24,9.2,43.2,33.2,56.1,60.6
		c26.4,55.7,29.3,128.3,7.7,187.3C345.3,338.3,299.2,378.7,217.5,397.1z"/>
	<path class="st0" d="M190.8,191.7c-15.1,33.8-50.9,49.1-79.3,34.8c-28.3-14.3-46.2-55.7-41.6-94.2c4.7-38.5,30.9-70.6,61-76.3
		c24.2-4.6,50.8,8.3,63.9,34.8C208.6,118.9,206.5,156.7,190.8,191.7z"/>
</g>
<g id="_x30_8_home">
	<path d="M321,208.2v123.4c0,5.4-4.4,9.7-9.7,9.7h-7.5c-2.7,0-4.8,2.2-4.8,4.8s2.2,4.8,4.8,4.8h7.5c10.7,0,19.4-8.7,19.4-19.4V218.2
		l9.8,10.2c4.4,4.6,11.8,4.7,16.3,0.2l13.1-13.1c4.4-4.4,4.4-11.5,0.2-16L221.5,45c-7.1-7.4-18.9-7.4-26,0L47,199.5
		c-4.3,4.5-4.2,11.6,0.2,16l13.1,13.1c4.5,4.5,11.9,4.5,16.3-0.2l9.8-10.2v23.4c0,2.7,2.2,4.8,4.8,4.8s4.8-2.2,4.8-4.8v-33.5
		L204.8,94.9c2-2.1,5.3-2.1,7.3,0C298.9,185.2,281.7,167.3,321,208.2z M363,208.7l-13.1,13.1c-0.9,0.7-1.7,0.7-2.5,0L219.1,88.3
		c0,0,0,0,0,0c0,0,0,0,0,0c-5.8-6-15.4-6-21.2,0L87.8,202.9c0,0,0,0,0,0l-18.1,18.9c-0.8,0.7-1.7,0.7-2.5,0L54,208.7
		c-0.7-0.7-0.7-1.8,0-2.5L202.5,51.7c3.3-3.4,8.8-3.4,12.1,0L363,206.2C363.7,206.9,363.7,208,363,208.7L363,208.7z"/>
	<path d="M281.2,341.3h-28.6v-54.6c0-24.3-19.7-44-44-44c-24.3,0-44,19.7-44,44v54.6h-58.7c-5.4,0-9.7-4.4-9.7-9.7v-67.4
		c0-2.7-2.2-4.8-4.8-4.8s-4.8,2.2-4.8,4.8v67.4c0,10.7,8.7,19.4,19.4,19.4h175.4c2.7,0,4.8-2.2,4.8-4.8S283.8,341.3,281.2,341.3
		L281.2,341.3z M174.1,286.6c0-19,15.4-34.4,34.4-34.4s34.4,15.4,34.4,34.4v54.6h-68.7L174.1,286.6z"/>
</g>
</svg>
