<?xml version="1.0" encoding="utf-8"?>
<!-- Generator: Adobe Illustrator 24.1.0, SVG Export Plug-In . SVG Version: 6.00 Build 0)  -->
<svg version="1.1" id="Capa_1" xmlns="http://www.w3.org/2000/svg" xmlns:xlink="http://www.w3.org/1999/xlink" x="0px" y="0px"
	 viewBox="0 0 300 300" style="enable-background:new 0 0 300 300;" xml:space="preserve">
<style type="text/css">
	.st0{fill:#95A0A0;}
	.st1{fill:none;stroke:#FFFFFF;stroke-miterlimit:10;}
	.st2{fill:#FFFFFF;}
	.st3{fill:#D1AC9F;}
</style>
<g>
	<path class="st3" d="M295.57,53.65c2.45,0,4.43-1.98,4.43-4.43V4.43c0-2.45-1.98-4.43-4.43-4.43H4.43C1.98,0,0,1.98,0,4.43v44.79
		c0,2.45,1.98,4.43,4.43,4.43H32.3v91.92H4.43C1.98,145.57,0,147.55,0,150v15.19c0,2.45,1.98,4.43,4.43,4.43h12.03v125.95
		c0,2.45,1.98,4.43,4.43,4.43h258.23c2.45,0,4.43-1.98,4.43-4.43V169.62h12.03c2.45,0,4.43-1.98,4.43-4.43V150
		c0-2.45-1.98-4.43-4.43-4.43H267.7V53.65H295.57z M8.86,8.86h282.28v35.93H8.86V8.86z M146.84,145.57v-25.95
		c0-2.45-1.98-4.43-4.43-4.43h-15.19c-2.45,0-4.43,1.98-4.43,4.43v25.95h-7.07v-25.95c0-2.45-1.98-4.43-4.43-4.43H80.91
		c-2.45,0-4.43,1.98-4.43,4.43v25.95H56.36V53.65h187.29v91.92H146.84z M137.97,145.57h-6.33v-21.52h6.33V145.57z M106.86,130.38
		H85.34v-6.33h21.52V130.38z M85.34,139.24h21.52v6.33H85.34V139.24z M41.17,53.65h6.33v91.92h-6.33V53.65z M274.68,237.34H25.32
		v-21.52h249.37V237.34z M25.32,291.14V246.2h249.37v44.94H25.32z M274.68,206.96H25.32v-37.34h249.37V206.96z M291.14,160.76H8.86
		v-6.33h282.28V160.76z M258.83,145.57h-6.33V53.65h6.33V145.57z M258.83,145.57"/>
	<path class="st3" d="M48.5,24.05c5.91,0,5.91-8.86,0-8.86H30.78c-5.91,0-5.91,8.86,0,8.86H48.5z M48.5,24.05"/>
</g>
</svg>
